<svg xmlns="http://www.w3.org/2000/svg" viewBox="0 0 512 512" xmlns:xlink="http://www.w3.org/1999/xlink" xml:space="preserve" width="100%" height="100%">
    <path xmlns="http://www.w3.org/2000/svg" fill="none" stroke="#000" stroke-miterlimit="10" stroke-width="32" d="M448 256c0-106-86-192-192-192S64 150 64 256s86 192 192 192 192-86 192-192z">
    </path>
    <path xmlns="http://www.w3.org/2000/svg" d="m350.67 150.93-117.2 46.88a64 64 0 0 0-35.66 35.66l-46.88 117.2a8 8 0 0 0 10.4 10.4l117.2-46.88a64 64 0 0 0 35.66-35.66l46.88-117.2a8 8 0 0 0-10.4-10.4zM256 280a24 24 0 1 1 24-24 24 24 0 0 1-24 24z">
        <animateTransform
            attributeName="transform"
            attributeType="XML"
            type="rotate"
            values="0 256 256; 15 256 256; 0 256 256; -15 256 256; 0 256 256;"
            keyTimes="0; 0.25; 0.5; 0.75; 1"
            dur="2s"
            repeatCount="indefinite"
        />
    </path>
</svg>
